<svg width="16" height="16" viewBox="0 0 16 16" fill="none" xmlns="http://www.w3.org/2000/svg">
<g clip-path="url(#clip0_7_21548)">
<path d="M12.6133 3.34008C12.48 2.94675 12.1067 2.66675 11.6667 2.66675H4.33333C3.89333 2.66675 3.52667 2.94675 3.38667 3.34008L2.07333 7.12008C2.02667 7.26008 2 7.40675 2 7.56008V12.3334C2 12.8867 2.44667 13.3334 3 13.3334C3.55333 13.3334 4 12.8867 4 12.3334V12.0001H12V12.3334C12 12.8801 12.4467 13.3334 13 13.3334C13.5467 13.3334 14 12.8867 14 12.3334V7.56008C14 7.41341 13.9733 7.26008 13.9267 7.12008L12.6133 3.34008ZM4.33333 10.0001C3.78 10.0001 3.33333 9.55341 3.33333 9.00008C3.33333 8.44675 3.78 8.00008 4.33333 8.00008C4.88667 8.00008 5.33333 8.44675 5.33333 9.00008C5.33333 9.55341 4.88667 10.0001 4.33333 10.0001ZM11.6667 10.0001C11.1133 10.0001 10.6667 9.55341 10.6667 9.00008C10.6667 8.44675 11.1133 8.00008 11.6667 8.00008C12.22 8.00008 12.6667 8.44675 12.6667 9.00008C12.6667 9.55341 12.22 10.0001 11.6667 10.0001ZM3.33333 6.66675L4.18 4.12008C4.27333 3.85341 4.52667 3.66675 4.81333 3.66675H11.1867C11.4733 3.66675 11.7267 3.85341 11.82 4.12008L12.6667 6.66675H3.33333Z" fill="#6E8BB7"/>
</g>
<defs>
<clipPath id="clip0_7_21548">
<rect width="16" height="16" fill="white"/>
</clipPath>
</defs>
</svg>
