<svg width="16" height="16" viewBox="0 0 16 16" fill="none" xmlns="http://www.w3.org/2000/svg">
<path d="M15 5.26953V4.53125C15 3.68556 14.3144 3 13.4688 3H2.53125C1.68556 3 1 3.68556 1 4.53125V5.26953C1 5.34503 1.06122 5.40625 1.13672 5.40625H14.8633C14.9388 5.40625 15 5.34503 15 5.26953Z" fill="#6E8BB7"/>
<path d="M1 6.41797V11.0938C1 11.9394 1.68556 12.625 2.53125 12.625H13.4688C14.3144 12.625 15 11.9394 15 11.0938V6.41797C15 6.34247 14.9388 6.28125 14.8633 6.28125H1.13672C1.06122 6.28125 1 6.34247 1 6.41797ZM4.5 10C4.5 10.2416 4.30411 10.4375 4.0625 10.4375H3.625C3.38339 10.4375 3.1875 10.2416 3.1875 10V9.5625C3.1875 9.32089 3.38339 9.125 3.625 9.125H4.0625C4.30411 9.125 4.5 9.32089 4.5 9.5625V10Z" fill="#6E8BB7"/>
</svg>
