<svg width="16" height="16" viewBox="0 0 16 16" fill="none" xmlns="http://www.w3.org/2000/svg">
<g clip-path="url(#clip0_7_21386)">
<path d="M15.6863 3.45654H2.50196C2.32869 3.45654 2.18823 3.597 2.18823 3.77027V4.82564H14.1255C14.472 4.82564 14.7529 5.10655 14.7529 5.45309V10.233H15.6863C15.8595 10.233 16 10.0926 16 9.91929V3.77027C16 3.597 15.8595 3.45654 15.6863 3.45654Z" fill="#6E8BB7"/>
<path d="M13.498 5.76709H0.313726C0.140549 5.76709 0 5.90764 0 6.08082V12.2298C0 12.403 0.140549 12.5436 0.313726 12.5436H13.498C13.6712 12.5436 13.8118 12.403 13.8118 12.2298V6.08082C13.8118 5.90764 13.6712 5.76709 13.498 5.76709ZM2.48941 9.51391C2.48941 9.77431 2.27796 9.9845 2.01882 9.9845C1.75843 9.9845 1.54824 9.77336 1.54824 9.51391V8.79674C1.54824 8.53603 1.75937 8.32615 2.01882 8.32615C2.27639 8.32615 2.48941 8.53446 2.48941 8.79674V9.51391ZM6.90573 11.1745C5.79326 11.1745 4.88659 10.2697 4.88659 9.15533C4.88659 8.0416 5.79231 7.13587 6.90573 7.13587C8.01945 7.13587 8.92518 8.0416 8.92518 9.15533C8.92518 10.2665 8.02196 11.1745 6.90573 11.1745ZM12.2635 9.51391C12.2635 9.77368 12.0527 9.9845 11.7929 9.9845C11.5329 9.9845 11.3224 9.77368 11.3224 9.51391V8.79674C11.3224 8.53666 11.5329 8.32615 11.7929 8.32615C12.0527 8.32615 12.2635 8.53666 12.2635 8.79674V9.51391Z" fill="#6E8BB7"/>
<path d="M6.90572 10.2329C7.50054 10.2329 7.98399 9.74944 7.98399 9.15493C7.98399 8.56042 7.50054 8.07666 6.90572 8.07666C6.31121 8.07666 5.82776 8.56042 5.82776 9.15493C5.82776 9.74944 6.31121 10.2329 6.90572 10.2329Z" fill="#6E8BB7"/>
</g>
<defs>
<clipPath id="clip0_7_21386">
<rect width="16" height="16" fill="white"/>
</clipPath>
</defs>
</svg>
