<svg width="20" height="20" viewBox="0 0 20 20" fill="none" xmlns="http://www.w3.org/2000/svg">
<g clip-path="url(#clip0_1809_1165)">
<path d="M16.1999 10.8248L16.1916 10.8415C16.2249 10.5665 16.2583 10.2832 16.2583 9.99984C16.2583 9.7165 16.2333 9.44984 16.1999 9.17484L16.2083 9.1915L18.2416 7.5915L16.2166 4.07484L13.8249 5.0415L13.8333 5.04984C13.3999 4.7165 12.9249 4.43317 12.4083 4.2165H12.4166L12.0333 1.6665H7.97493L7.60827 4.22484H7.6166C7.09994 4.4415 6.62493 4.72484 6.1916 5.05817L6.19993 5.04984L3.79993 4.07484L1.7666 7.5915L3.79993 9.1915L3.80827 9.17484C3.77494 9.44984 3.74993 9.7165 3.74993 9.99984C3.74993 10.2832 3.77493 10.5665 3.8166 10.8415L3.80827 10.8248L2.05827 12.1998L1.78327 12.4165L3.80827 15.9165L6.20827 14.9582L6.1916 14.9248C6.63327 15.2665 7.10827 15.5498 7.63327 15.7665H7.60827L7.98327 18.3332H12.0249C12.0249 18.3332 12.0499 18.1832 12.0749 17.9832L12.3916 15.7748H12.3833C12.8999 15.5582 13.3833 15.2748 13.8249 14.9332L13.8083 14.9665L16.2083 15.9248L18.2333 12.4248C18.2333 12.4248 18.1166 12.3248 17.9583 12.2082L16.1999 10.8248ZM9.99994 12.9165C8.3916 12.9165 7.08327 11.6082 7.08327 9.99984C7.08327 8.3915 8.3916 7.08317 9.99994 7.08317C11.6083 7.08317 12.9166 8.3915 12.9166 9.99984C12.9166 11.6082 11.6083 12.9165 9.99994 12.9165Z" fill="#6E8BB7"/>
</g>
<defs>
<clipPath id="clip0_1809_1165">
<rect width="20" height="20" fill="white"/>
</clipPath>
</defs>
</svg>
